# xmcd
#
# Track frame offsets: 
#        150
#        827
#        12635
#        32452
#        50618
#        63212
#        77007
#        96082
#        114996
#        138226
#        153568
#        166712
#        180737
#        198633
#
# Disc length: 2889 seconds
#
# Revision: 0
# Processed by: cddbd v1.5.2PL0 Copyright (c) Steve Scherf et al.
# Submitted via: ExactAudioCopyFreeDBPlugin 1.0
#
DISCID=a40b470e
DTITLE=Revolutionaires - Shout It Out!
DYEAR=2007
DGENRE=Blues
TTITLE0=All That Jazz
TTITLE1=Lonesome Train
TTITLE2=Riot In Cell Block #9
TTITLE3=Keep A Knockin'
TTITLE4=Be My Guest
TTITLE5=Jam Up
TTITLE6=Matchbox
TTITLE7=Hey Mr. Bartender
TTITLE8=Give Me Back My Hat
TTITLE9=Nitty Gritty Mississippi
TTITLE10=Lucille
TTITLE11=Baby Please Don't Go
TTITLE12=Let It Rock
TTITLE13=Limp Quiff
EXTD=
EXTT0=
EXTT1=
EXTT2=
EXTT3=
EXTT4=
EXTT5=
EXTT6=
EXTT7=
EXTT8=
EXTT9=
EXTT10=
EXTT11=
EXTT12=
EXTT13=
PLAYORDER=
